<svg xmlns="http://www.w3.org/2000/svg" viewBox="-37.84 -125.68 1423.87 189.68" width="1423.87" height="189.68">
<path fill="#0C2E37" d="M18.480 0L2.160 0L24.240-84L51.840-84L73.920 0L57.600 0L53.040-18.480L23.040-18.480L18.480 0M36.960-74.040L26.760-33.120L49.320-33.120L39.120-74.040L36.960-74.040M106.800 1.680Q95.160 1.680 87.720-3.360Q80.280-8.400 78.720-17.760L92.640-21.360Q93.480-17.160 95.460-14.760Q97.440-12.360 100.380-11.340Q103.320-10.320 106.800-10.320Q112.080-10.320 114.600-12.180Q117.120-14.040 117.120-16.800Q117.120-19.560 114.720-21.060Q112.320-22.560 107.040-23.520L103.680-24.120Q97.440-25.320 92.280-27.420Q87.120-29.520 84-33.240Q80.880-36.960 80.880-42.840Q80.880-51.720 87.360-56.460Q93.840-61.200 104.400-61.200Q114.360-61.200 120.960-56.760Q127.560-52.320 129.600-45.120L115.560-40.800Q114.600-45.360 111.660-47.280Q108.720-49.200 104.400-49.200Q100.080-49.200 97.800-47.700Q95.520-46.200 95.520-43.560Q95.520-40.680 97.920-39.300Q100.320-37.920 104.400-37.200L107.760-36.600Q114.480-35.400 119.940-33.420Q125.400-31.440 128.580-27.780Q131.760-24.120 131.760-17.880Q131.760-8.520 124.980-3.420Q118.200 1.680 106.800 1.680M157.680 24L142.560 24L142.560-59.520L157.440-59.520L157.440-52.320L159.600-52.320Q161.640-55.800 165.960-58.500Q170.280-61.200 178.320-61.200Q185.520-61.200 191.640-57.660Q197.760-54.120 201.480-47.280Q205.200-40.440 205.200-30.720L205.200-28.800Q205.200-19.080 201.480-12.240Q197.760-5.400 191.640-1.860Q185.520 1.680 178.320 1.680Q172.920 1.680 169.260 0.420Q165.600-0.840 163.380-2.820Q161.160-4.800 159.840-6.840L157.680-6.840L157.680 24M173.760-11.520Q180.840-11.520 185.460-16.020Q190.080-20.520 190.080-29.160L190.080-30.360Q190.080-39 185.400-43.500Q180.720-48 173.760-48Q166.800-48 162.120-43.500Q157.440-39 157.440-30.360L157.440-29.160Q157.440-20.520 162.120-16.020Q166.800-11.520 173.760-11.520M231.840 0L216.720 0L216.720-59.520L231.840-59.520L231.840 0M224.280-66.480Q220.200-66.480 217.380-69.120Q214.560-71.760 214.560-76.080Q214.560-80.400 217.380-83.040Q220.200-85.680 224.280-85.680Q228.480-85.680 231.240-83.040Q234-80.400 234-76.080Q234-71.760 231.240-69.120Q228.480-66.480 224.280-66.480M261.360 0L246.240 0L246.240-59.520L261.120-59.520L261.120-52.800L263.280-52.800Q264.600-56.400 267.660-58.080Q270.720-59.760 274.800-59.760L282-59.760L282-46.320L274.560-46.320Q268.800-46.320 265.080-43.260Q261.360-40.200 261.360-33.840L261.360 0M316.320 1.680Q307.440 1.680 300.660-2.100Q293.880-5.880 290.100-12.780Q286.320-19.680 286.320-29.040L286.320-30.480Q286.320-39.840 290.040-46.740Q293.760-53.640 300.480-57.420Q307.200-61.200 316.080-61.200Q324.840-61.200 331.320-57.300Q337.800-53.400 341.400-46.500Q345-39.600 345-30.480L345-25.320L301.680-25.320Q301.920-19.200 306.240-15.360Q310.560-11.520 316.800-11.520Q323.160-11.520 326.160-14.280Q329.160-17.040 330.720-20.400L343.080-13.920Q341.400-10.800 338.220-7.140Q335.040-3.480 329.760-0.900Q324.480 1.680 316.320 1.680M301.800-36.600L329.640-36.600Q329.160-41.760 325.500-44.880Q321.840-48 315.960-48Q309.840-48 306.240-44.880Q302.640-41.760 301.800-36.600"/>
<path fill="#F7931E" d="M365.640 1.680Q360.720 1.680 357.420-1.500Q354.120-4.680 354.120-9.720Q354.120-14.760 357.420-17.940Q360.720-21.120 365.640-21.120Q370.440-21.120 373.680-17.940Q376.920-14.760 376.920-9.720Q376.920-4.680 373.680-1.500Q370.440 1.680 365.640 1.680"/>
<rect fill="#F7931E" x="386.9199999999999" y="-78.84" width="3" height="96" rx="1.5"/>
<path fill="#5A6669" d="M413.240-15.928Q409.412-15.928 406.404-17.705Q403.397-19.483 401.658-22.822Q399.920-26.162 399.920-30.850Q399.920-35.557 401.668-38.906Q403.416-42.256 406.434-44.033Q409.451-45.811 413.240-45.811Q415.623-45.811 417.703-45.137Q419.783-44.463 421.414-43.164Q423.045-41.865 424.100-39.990Q425.154-38.115 425.506-35.733L420.252-35.733Q419.998-37.041 419.383-38.037Q418.768-39.033 417.850-39.727Q416.932-40.420 415.779-40.781Q414.627-41.143 413.318-41.143Q410.936-41.143 409.090-39.942Q407.244-38.740 406.199-36.445Q405.154-34.151 405.154-30.850Q405.154-27.510 406.209-25.225Q407.264-22.940 409.109-21.768Q410.955-20.596 413.299-20.596Q414.607-20.596 415.760-20.957Q416.912-21.319 417.840-22.012Q418.768-22.705 419.393-23.711Q420.018-24.717 420.252-26.006L425.525-26.006Q425.232-23.916 424.246-22.090Q423.260-20.264 421.658-18.877Q420.057-17.490 417.938-16.709Q415.818-15.928 413.240-15.928M442.861-16.319L437.157-16.319L447.314-45.420L453.935-45.420L464.325-16.319L458.603-16.319L453.427-31.436Q452.665-33.779 451.845-36.738Q451.025-39.697 450.029-43.467L451.122-43.467Q450.146-39.658 449.355-36.680Q448.564-33.701 447.861-31.436L442.861-16.319M458.407-23.526L443.075-23.526L443.075-27.725L458.407-27.725L458.407-23.526M482.227-16.319L477.012-16.319L477.012-45.420L487.891-45.420Q491.231-45.420 493.516-44.248Q495.801-43.076 496.973-40.977Q498.145-38.877 498.145-36.104Q498.145-33.330 496.963-31.279Q495.782-29.229 493.477-28.115Q491.172-27.002 487.813-27.002L480.040-27.002L480.040-31.319L487.129-31.319Q489.102-31.319 490.352-31.875Q491.602-32.432 492.207-33.506Q492.813-34.580 492.813-36.104Q492.813-37.666 492.207-38.770Q491.602-39.873 490.342-40.459Q489.082-41.045 487.090-41.045L482.227-41.045L482.227-16.319M499.219-16.319L493.379-16.319L486.309-29.522L492.012-29.522L499.219-16.319M530.890-16.319L511.906-16.319L511.906-45.420L530.812-45.420L530.812-41.026L517.121-41.026L517.121-33.174L529.797-33.174L529.797-28.838L517.121-28.838L517.121-20.713L530.890-20.713L530.890-16.319M563.909-16.319L544.925-16.319L544.925-45.420L563.831-45.420L563.831-41.026L550.140-41.026L550.140-33.174L562.815-33.174L562.815-28.838L550.140-28.838L550.140-20.713L563.909-20.713L563.909-16.319M583.158-16.319L577.943-16.319L577.943-45.420L588.822-45.420Q592.162-45.420 594.447-44.248Q596.732-43.076 597.904-40.977Q599.076-38.877 599.076-36.104Q599.076-33.330 597.895-31.279Q596.713-29.229 594.408-28.115Q592.104-27.002 588.744-27.002L580.971-27.002L580.971-31.319L588.061-31.319Q590.033-31.319 591.283-31.875Q592.533-32.432 593.139-33.506Q593.744-34.580 593.744-36.104Q593.744-37.666 593.139-38.770Q592.533-39.873 591.274-40.459Q590.014-41.045 588.022-41.045L583.158-41.045L583.158-16.319M600.150-16.319L594.311-16.319L587.240-29.522L592.943-29.522L600.150-16.319M640.094-15.908Q637.145-15.908 634.987-16.983Q632.829-18.057 631.676-19.893Q630.524-21.729 630.524-23.975Q630.524-25.772 631.237-27.129Q631.950-28.486 633.239-29.619Q634.528-30.752 636.188-31.924L641.344-35.440Q641.911-35.850 642.448-36.358Q642.985-36.865 643.317-37.500Q643.649-38.135 643.649-38.916Q643.649-40.049 642.868-40.820Q642.086-41.592 640.700-41.592Q639.762-41.592 639.049-41.211Q638.336-40.830 637.946-40.166Q637.555-39.502 637.555-38.604Q637.555-37.608 638.043-36.651Q638.532-35.694 639.381-34.639Q640.231-33.584 641.325-32.295L654.977-16.319L649.430-16.319L638.122-29.287Q636.813-30.850 635.641-32.285Q634.469-33.721 633.737-35.264Q633.004-36.807 633.004-38.643Q633.004-40.674 633.952-42.285Q634.899-43.897 636.618-44.824Q638.336-45.752 640.641-45.752Q642.907-45.752 644.557-44.844Q646.207-43.936 647.106-42.432Q648.004-40.928 648.004-39.072Q648.004-37.744 647.516-36.572Q647.028-35.401 646.168-34.404Q645.309-33.408 644.137-32.549L638.239-28.252Q636.852-27.217 636.198-26.260Q635.543-25.303 635.543-24.092Q635.543-22.881 636.120-21.973Q636.696-21.065 637.731-20.567Q638.766-20.069 640.133-20.069Q641.774-20.069 643.327-20.781Q644.879-21.494 646.120-22.803Q647.360-24.111 648.102-25.938Q648.844-27.764 648.844-29.990L653.239-29.990Q653.239-27.236 652.624-25.205Q652.008-23.174 651.041-21.787Q650.075-20.401 649.040-19.580L647.809-18.643Q646.266-17.236 644.186-16.572Q642.106-15.908 640.094-15.908M704.882-16.319L685.897-16.319L685.897-45.420L704.804-45.420L704.804-41.026L691.112-41.026L691.112-33.174L703.788-33.174L703.788-28.838L691.112-28.838L691.112-20.713L704.882-20.713L704.882-16.319M728.760-16.319L721.397-16.319L721.397-20.830L728.506-20.830Q731.553-20.830 733.594-21.953Q735.635-23.076 736.670-25.313Q737.705-27.549 737.705-30.908Q737.705-34.229 736.670-36.455Q735.635-38.682 733.633-39.795Q731.631-40.908 728.643-40.908L721.240-40.908L721.240-45.420L728.955-45.420Q733.291-45.420 736.397-43.682Q739.502-41.944 741.172-38.682Q742.842-35.420 742.842-30.908Q742.842-26.358 741.172-23.086Q739.502-19.815 736.348-18.067Q733.193-16.319 728.760-16.319M718.916-45.420L724.131-45.420L724.131-16.319L718.916-16.319L718.916-45.420M768.400-15.889Q764.845-15.889 762.189-17.227Q759.532-18.565 758.068-20.938Q756.603-23.311 756.603-26.416L756.603-45.420L761.818-45.420L761.818-26.846Q761.818-25.029 762.628-23.604Q763.439-22.178 764.913-21.367Q766.388-20.557 768.400-20.557Q770.411-20.557 771.886-21.367Q773.361-22.178 774.171-23.604Q774.982-25.029 774.982-26.846L774.982-45.420L780.197-45.420L780.197-26.416Q780.197-23.311 778.722-20.938Q777.247-18.565 774.601-17.227Q771.954-15.889 768.400-15.889M807.239-15.928Q803.411-15.928 800.403-17.705Q797.395-19.483 795.657-22.822Q793.918-26.162 793.918-30.850Q793.918-35.557 795.666-38.906Q797.415-42.256 800.432-44.033Q803.450-45.811 807.239-45.811Q809.622-45.811 811.702-45.137Q813.782-44.463 815.413-43.164Q817.043-41.865 818.098-39.990Q819.153-38.115 819.504-35.733L814.250-35.733Q813.997-37.041 813.381-38.037Q812.766-39.033 811.848-39.727Q810.930-40.420 809.778-40.781Q808.625-41.143 807.317-41.143Q804.934-41.143 803.088-39.942Q801.243-38.740 800.198-36.445Q799.153-34.151 799.153-30.850Q799.153-27.510 800.207-25.225Q801.262-22.940 803.108-21.768Q804.954-20.596 807.297-20.596Q808.606-20.596 809.758-20.957Q810.911-21.319 811.838-22.012Q812.766-22.705 813.391-23.711Q814.016-24.717 814.250-26.006L819.524-26.006Q819.231-23.916 818.245-22.090Q817.258-20.264 815.657-18.877Q814.055-17.490 811.936-16.709Q809.817-15.928 807.239-15.928M836.859-16.319L831.156-16.319L841.312-45.420L847.933-45.420L858.324-16.319L852.601-16.319L847.425-31.436Q846.664-33.779 845.843-36.738Q845.023-39.697 844.027-43.467L845.121-43.467Q844.144-39.658 843.353-36.680Q842.562-33.701 841.859-31.436L836.859-16.319M852.406-23.526L837.074-23.526L837.074-27.725L852.406-27.725L852.406-23.526M878.686-41.026L869.702-41.026L869.702-45.420L892.866-45.420L892.866-41.026L883.901-41.026L883.901-16.319L878.686-16.319L878.686-41.026M906.217-45.420L911.432-45.420L911.432-16.319L906.217-16.319L906.217-45.420M938.552-15.928Q934.724-15.928 931.697-17.705Q928.669-19.483 926.921-22.822Q925.173-26.162 925.173-30.850Q925.173-35.557 926.921-38.906Q928.669-42.256 931.697-44.033Q934.724-45.811 938.552-45.811Q942.361-45.811 945.378-44.033Q948.396-42.256 950.144-38.906Q951.892-35.557 951.892-30.850Q951.892-26.162 950.144-22.813Q948.396-19.463 945.378-17.695Q942.361-15.928 938.552-15.928M938.552-20.596Q940.915-20.596 942.741-21.777Q944.568-22.959 945.603-25.254Q946.638-27.549 946.638-30.850Q946.638-34.190 945.603-36.485Q944.568-38.779 942.741-39.961Q940.915-41.143 938.552-41.143Q936.169-41.143 934.333-39.951Q932.497-38.760 931.452-36.465Q930.407-34.170 930.407-30.850Q930.407-27.549 931.452-25.264Q932.497-22.979 934.333-21.787Q936.169-20.596 938.552-20.596M970.946-16.319L965.633-16.319L965.633-45.420L971.532-45.420L981.590-29.385Q982.215-28.389 982.918-27.129Q983.622-25.869 984.383-24.317Q985.145-22.764 985.887-20.869L985.301-20.869Q985.165-22.510 985.057-24.238Q984.950-25.967 984.901-27.520Q984.852-29.072 984.852-30.147L984.852-45.420L990.145-45.420L990.145-16.319L984.227-16.319L975.145-30.752Q974.286-32.139 973.524-33.486Q972.762-34.834 971.883-36.533Q971.004-38.233 969.754-40.635L970.497-40.635Q970.614-38.506 970.711-36.602Q970.809-34.697 970.877-33.194Q970.946-31.690 970.946-30.772L970.946-16.319M1008.554-16.319L1002.851-16.319L1013.007-45.420L1019.629-45.420L1030.019-16.319L1024.297-16.319L1019.121-31.436Q1018.359-33.779 1017.539-36.738Q1016.718-39.697 1015.722-43.467L1016.816-43.467Q1015.840-39.658 1015.049-36.680Q1014.257-33.701 1013.554-31.436L1008.554-16.319M1024.101-23.526L1008.769-23.526L1008.769-27.725L1024.101-27.725L1024.101-23.526M1060.772-16.319L1042.706-16.319L1042.706-45.420L1047.921-45.420L1047.921-20.713L1060.772-20.713L1060.772-16.319M1103.216-15.869Q1099.837-15.869 1097.347-16.924Q1094.857-17.979 1093.450-19.990Q1092.044-22.002 1091.927-24.873L1097.064-24.873Q1097.200-23.350 1098.021-22.334Q1098.841-21.319 1100.189-20.820Q1101.536-20.322 1103.177-20.322Q1104.896-20.322 1106.214-20.850Q1107.532-21.377 1108.275-22.324Q1109.017-23.272 1109.017-24.522Q1109.017-25.654 1108.363-26.397Q1107.708-27.139 1106.527-27.656Q1105.345-28.174 1103.763-28.565L1100.462-29.424Q1096.810-30.361 1094.769-32.256Q1092.728-34.151 1092.728-37.236Q1092.728-39.815 1094.115-41.748Q1095.501-43.682 1097.904-44.746Q1100.306-45.811 1103.353-45.811Q1106.458-45.811 1108.802-44.736Q1111.146-43.662 1112.464-41.768Q1113.782-39.873 1113.841-37.451L1108.782-37.451Q1108.587-39.326 1107.113-40.352Q1105.638-41.377 1103.275-41.377Q1101.634-41.377 1100.452-40.879Q1099.271-40.381 1098.636-39.522Q1098.001-38.662 1098.001-37.549Q1098.001-36.338 1098.753-35.557Q1099.505-34.776 1100.648-34.307Q1101.790-33.838 1102.962-33.545L1105.677-32.842Q1107.298-32.451 1108.822-31.807Q1110.345-31.162 1111.566-30.176Q1112.786-29.190 1113.509-27.783Q1114.232-26.377 1114.232-24.483Q1114.232-21.924 1112.923-19.981Q1111.615-18.037 1109.154-16.953Q1106.693-15.869 1103.216-15.869M1146.801-16.319L1127.817-16.319L1127.817-45.420L1146.723-45.420L1146.723-41.026L1133.032-41.026L1133.032-33.174L1145.707-33.174L1145.707-28.838L1133.032-28.838L1133.032-20.713L1146.801-20.713L1146.801-16.319M1166.050-16.319L1160.836-16.319L1160.836-45.420L1171.715-45.420Q1175.054-45.420 1177.340-44.248Q1179.625-43.076 1180.797-40.977Q1181.968-38.877 1181.968-36.104Q1181.968-33.330 1180.787-31.279Q1179.605-29.229 1177.300-28.115Q1174.996-27.002 1171.636-27.002L1163.863-27.002L1163.863-31.319L1170.953-31.319Q1172.925-31.319 1174.175-31.875Q1175.425-32.432 1176.031-33.506Q1176.636-34.580 1176.636-36.104Q1176.636-37.666 1176.031-38.770Q1175.425-39.873 1174.166-40.459Q1172.906-41.045 1170.914-41.045L1166.050-41.045L1166.050-16.319M1183.043-16.319L1177.203-16.319L1170.132-29.522L1175.836-29.522L1183.043-16.319M1210.749-16.319L1204.147-16.319L1193.776-45.420L1199.499-45.420L1204.655-30.303Q1205.378-28.037 1206.218-25.078Q1207.057-22.119 1208.034-18.389L1206.940-18.389Q1207.917-22.178 1208.727-25.108Q1209.538-28.037 1210.241-30.303L1215.241-45.420L1220.944-45.420L1210.749-16.319M1233.631-45.420L1238.846-45.420L1238.846-16.319L1233.631-16.319L1233.631-45.420M1265.907-15.928Q1262.079-15.928 1259.072-17.705Q1256.064-19.483 1254.325-22.822Q1252.587-26.162 1252.587-30.850Q1252.587-35.557 1254.335-38.906Q1256.083-42.256 1259.101-44.033Q1262.118-45.811 1265.907-45.811Q1268.290-45.811 1270.370-45.137Q1272.450-44.463 1274.081-43.164Q1275.712-41.865 1276.767-39.990Q1277.822-38.115 1278.173-35.733L1272.919-35.733Q1272.665-37.041 1272.050-38.037Q1271.435-39.033 1270.517-39.727Q1269.599-40.420 1268.447-40.781Q1267.294-41.143 1265.986-41.143Q1263.603-41.143 1261.757-39.942Q1259.911-38.740 1258.866-36.445Q1257.822-34.151 1257.822-30.850Q1257.822-27.510 1258.876-25.225Q1259.931-22.940 1261.777-21.768Q1263.622-20.596 1265.966-20.596Q1267.275-20.596 1268.427-20.957Q1269.579-21.319 1270.507-22.012Q1271.435-22.705 1272.060-23.711Q1272.685-24.717 1272.919-26.006L1278.193-26.006Q1277.900-23.916 1276.913-22.090Q1275.927-20.264 1274.325-18.877Q1272.724-17.490 1270.605-16.709Q1268.486-15.928 1265.907-15.928M1310.762-16.319L1291.778-16.319L1291.778-45.420L1310.684-45.420L1310.684-41.026L1296.993-41.026L1296.993-33.174L1309.668-33.174L1309.668-28.838L1296.993-28.838L1296.993-20.713L1310.762-20.713L1310.762-16.319M1335.011-15.869Q1331.632-15.869 1329.142-16.924Q1326.652-17.979 1325.246-19.990Q1323.840-22.002 1323.722-24.873L1328.859-24.873Q1328.996-23.350 1329.816-22.334Q1330.636-21.319 1331.984-20.820Q1333.332-20.322 1334.972-20.322Q1336.691-20.322 1338.009-20.850Q1339.328-21.377 1340.070-22.324Q1340.812-23.272 1340.812-24.522Q1340.812-25.654 1340.158-26.397Q1339.504-27.139 1338.322-27.656Q1337.140-28.174 1335.558-28.565L1332.257-29.424Q1328.605-30.361 1326.564-32.256Q1324.523-34.151 1324.523-37.236Q1324.523-39.815 1325.910-41.748Q1327.297-43.682 1329.699-44.746Q1332.101-45.811 1335.148-45.811Q1338.254-45.811 1340.597-44.736Q1342.941-43.662 1344.259-41.768Q1345.578-39.873 1345.636-37.451L1340.578-37.451Q1340.382-39.326 1338.908-40.352Q1337.433-41.377 1335.070-41.377Q1333.429-41.377 1332.248-40.879Q1331.066-40.381 1330.431-39.522Q1329.797-38.662 1329.797-37.549Q1329.797-36.338 1330.549-35.557Q1331.300-34.776 1332.443-34.307Q1333.586-33.838 1334.757-33.545L1337.472-32.842Q1339.093-32.451 1340.617-31.807Q1342.140-31.162 1343.361-30.176Q1344.582-29.190 1345.304-27.783Q1346.027-26.377 1346.027-24.483Q1346.027-21.924 1344.718-19.981Q1343.410-18.037 1340.949-16.953Q1338.488-15.869 1335.011-15.869"/>
</svg>
